Coordinates
version=1
nRows=21
nColumns=33
inDegrees=yes

Units are S.I. units (second, meters, Newtons, ...)
Angles are in degrees.

endheader
time	ground_thorax_rot_x	ground_thorax_rot_y	ground_thorax_rot_z	ground_thorax_tx	ground_thorax_ty	ground_thorax_tz	clav_prot_r	clav_elev_r	scapula_abduction_r	scapula_elevation_r	scapula_upward_rot_r	scapula_winging_r	shoulder_elv_r	plane_of_elev_r	axial_rot_r	elbow_flexion_r	pro_sup_r	wrist_flex_r	wrist_dev_r	clav_prot_l	clav_elev_l	scapula_abduction_l	scapula_elevation_l	scapula_upward_rot_l	scapula_winging_l	shoulder_elv_l	plane_of_elev_l	axial_rot_l	elbow_flexion_l	pro_sup_l	wrist_flex_l	wrist_dev_l
      3.62000000	     39.33401417	      4.17374378	      9.49468997	   -112.07896964	    803.06492735	      1.22295097	     17.17405775	     41.62264521	     45.00000000	     45.00000000	    -32.58464401	   2076.30981073	  -2630.94558203	    146.46094991	   -129.14092877	   1101.90971751	    201.41897656	      8.33999111	      4.01258249	      8.45145787	    -45.00000000	    -45.00000000	     45.00000000	    -16.52717162	  -1708.08563025	  -2090.16676479	     24.27049371	    -14.37410362	   1806.05353729	     24.51106407	     12.51637455	    -20.68337328
      3.63000000	     39.35632440	      4.24293471	      9.48970903	   -107.51397729	    801.24775618	      1.35173415	     16.96073479	     41.84490171	     45.00000000	     45.00000000	    -32.12545125	   2076.58250402	  -2631.19966431	    146.41976328	   -128.68701952	   1101.69667554	    202.72181732	      8.19299973	      3.75619484	      8.58118999	    -45.00000000	    -45.00000000	     45.00000000	    -16.37859705	  -1708.62235874	  -2090.44899730	     24.47471086	    -13.35577149	   1805.71108879	     25.43752148	     12.43649768	    -20.57195475
      3.64000000	     39.38946845	      4.05922403	      9.25833130	   -102.95159887	    799.41250903	      1.48068699	     17.02705611	     41.95845940	     45.00000000	     45.00000000	    -31.55964203	   2076.96330039	  -2631.42063588	    146.35143903	   -128.67349216	   1101.41047111	    204.19900729	      8.07708865	      3.62208553	      8.38575473	    -45.00000000	    -45.00000000	     45.00000000	    -15.84751924	  -1709.08856753	  -2090.73064176	     24.66745987	    -12.27980494	   1805.46937246	     26.48176656	     12.56625086	    -20.53530265
      3.65000000	     39.47359756	      3.64669688	      8.73952050	    -98.40881247	    797.57337443	      1.60457768	     17.05243668	     41.97888255	     45.00000000	     45.00000000	    -30.45744894	   2077.42640435	  -2631.67035864	    146.49894209	   -128.84111264	   1101.07140528	    206.21031443	      7.92568476	      3.54208122	      7.80702934	    -45.00000000	    -45.00000000	     45.00000000	    -15.06453644	  -1709.64076064	  -2091.00507062	     24.90942782	    -11.01874776	   1805.13976072	     27.88039687	     12.82950391	    -20.55127422
      3.66000000	     39.45709611	      3.76077673	      8.83797570	    -93.89907121	    795.74721995	      1.71800278	     17.03460901	     42.20814027	     45.00000000	     45.00000000	    -30.29441605	   2077.79405245	  -2631.90176434	    146.43387942	   -128.21514590	   1100.71042587	    207.83959444	      7.78118514	      3.37291977	      8.05359743	    -45.00000000	    -45.00000000	     45.00000000	    -15.00376190	  -1710.15117881	  -2091.24946112	     25.09491893	     -9.72217464	   1804.72548458	     28.90730326	     12.71922802	    -20.45972071
      3.67000000	     39.47542457	      3.61571829	      8.62679570	    -89.43763513	    793.95170750	      1.81702622	     16.98901691	     42.35971885	     45.00000000	     45.00000000	    -29.72998242	   2078.14907690	  -2632.19236448	    146.41770882	   -127.85428484	   1100.40331908	    209.56878977	      7.60862292	      3.22171266	      7.96171927	    -45.00000000	    -45.00000000	     45.00000000	    -14.64666102	  -1710.67611355	  -2091.49143007	     25.32447170	     -8.36885148	   1804.34601551	     29.94940100	     12.75062514	    -20.39089834
      3.68000000	     39.51795979	      3.32748488	      8.24224309	    -85.04343756	    792.20938885	      1.90150759	     16.95085961	     42.45087871	     45.00000000	     45.00000000	    -28.86135747	   2078.55013738	  -2632.53606015	    146.51330919	   -127.55862878	   1100.00811842	    211.54960009	      7.42655897	      3.12829455	      7.67481864	    -45.00000000	    -45.00000000	     45.00000000	    -14.11830334	  -1711.22699198	  -2091.71797341	     25.58016151	     -6.81421919	   1803.92580039	     31.06919058	     12.84423015	    -20.33348536
      3.69000000	     39.58551171	      2.99522266	      7.80988446	    -80.73612287	    790.54593770	      1.97331640	     16.88356720	     42.54955378	     45.00000000	     45.00000000	    -27.95189888	   2078.92919356	  -2632.83433129	    146.61700905	   -127.22900291	   1099.62425402	    213.87763638	      7.19425987	      3.06305092	      7.36449880	    -45.00000000	    -45.00000000	     45.00000000	    -13.64361442	  -1711.80843431	  -2091.90242819	     25.87303054	     -5.14142990	   1803.44242183	     32.24698694	     12.90221554	    -20.27077671
      3.70000000	     39.60619652	      2.95559491	      7.71421666	    -76.54060529	    788.99116671	      2.03642060	     16.83938647	     42.68357277	     45.00000000	     45.00000000	    -27.64855602	   2079.30152351	  -2633.09240808	    146.61219661	   -126.63416558	   1099.20888934	    216.07257795	      6.97080668	      2.99488323	      7.46898496	    -45.00000000	    -45.00000000	     45.00000000	    -13.60202438	  -1712.34051871	  -2092.05281046	     26.12449192	     -3.51899263	   1802.94674882	     33.17521587	     12.83623997	    -20.17570609
      3.71000000	     39.60207710	      2.80391097	      7.48915112	    -72.48059380	    787.57388592	      2.09660916	     16.80348621	     42.85754560	     45.00000000	     45.00000000	    -27.09492868	   2079.64829263	  -2633.43125966	    146.70090840	   -126.13972790	   1098.78961351	    218.48897831	      6.71571816	      2.95466172	      7.37595561	    -45.00000000	    -45.00000000	     45.00000000	    -13.28908602	  -1712.85613880	  -2092.18405155	     26.33398873	     -1.86094716	   1802.53995302	     34.04507804	     12.76029005	    -20.09446141
      3.72000000	     39.61950237	      3.38875775	      7.87566201	    -68.57587216	    786.32230045	      2.16011328	     15.89449877	     42.51853022	     45.00000000	     45.00000000	    -27.35066160	   2079.40176241	  -2634.01366839	    146.41743049	   -125.60849316	   1098.39114208	    220.06606525	      6.48303617	      2.64139368	      7.66026409	    -45.00000000	    -45.00000000	     45.00000000	    -15.41033201	  -1713.55828538	  -2092.04044821	     26.90886030	     -1.29177280	   1802.52000252	     34.62063933	     12.49903683	    -19.97177499
      3.73000000	     39.65149659	      2.16696813	      6.65007802	    -64.86362712	    785.26340153	      2.23243027	     16.64465846	     43.30239576	     45.00000000	     45.00000000	    -25.61681830	   2080.30765129	  -2634.04612033	    146.85821621	   -125.21311488	   1097.97056519	    223.24892423	      6.19122273	      2.90061034	      7.05213997	    -45.00000000	    -45.00000000	     45.00000000	    -12.41530441	  -1713.96149478	  -2092.32529412	     26.74025479	      0.73954843	   1801.61022018	     35.39239656	     12.57388776	    -19.88239086
      3.74000000	     39.61904942	      2.10690250	      6.51769375	    -61.35366869	    784.41597323	      2.31749593	     16.44987564	     43.33307528	     45.00000000	     44.85416481	    -25.14669971	   2080.49274821	  -2634.30525216	    146.95883437	   -124.42190474	   1097.40984862	    226.56641678	      5.90082304	      3.03792465	      7.12134538	    -45.00000000	    -45.00000000	     45.00000000	    -12.48695530	  -1714.44835628	  -2092.31137680	     26.89072061	      1.87900392	   1801.42306266	     36.06606791	     12.36168498	    -19.84818646
      3.75000000	     39.63974346	      1.58025010	      5.83095499	    -58.07617506	    783.79371403	      2.41544249	     15.95162204	     42.75419978	     45.00000000	     44.55359261	    -23.77100793	   2080.46682424	  -2632.36173904	    145.03371509	   -170.74052924	   1088.24834929	    384.33754332	     16.52448708	     14.60015700	      6.79972913	    -45.00000000	    -45.00000000	     45.00000000	    -12.78311495	  -1715.30322092	  -2091.38821773	     27.95596311	      9.29304802	   1800.55944327	     42.09455973	     11.72881588	    -20.40864117
      3.76000000	     39.63550874	      1.69479672	      5.99765251	    -55.05456755	    783.39553310	      2.52340634	     15.84766132	     42.96253405	     45.00000000	     44.53314847	    -23.50772755	   2080.55065113	  -2632.73702239	    144.85259731	   -170.45465170	   1087.71744439	    384.64161685	     16.66676196	     14.78608752	      7.06918204	    -45.00000000	    -45.00000000	     45.00000000	    -12.93295890	  -1715.58039414	  -2091.66913442	     27.76094560	      7.61785418	   1800.56597347	     40.76874762	     11.66703647	    -20.20137927
      3.77000000	     39.58459062	      1.61206386	      5.85220639	    -52.30264326	    783.21362086	      2.63520228	     15.52343282	     42.88921406	     45.00000000	     44.26721558	    -23.04709083	   2080.58854713	  -2632.74462161	    144.83955630	   -170.38061599	   1087.61626564	    384.94380200	     16.61891785	     14.84781920	      7.05208021	    -45.00000000	    -45.00000000	     45.00000000	    -13.23661429	  -1716.01066027	  -2091.60498105	     27.76006716	      6.64254480	   1800.61579027	     40.13145243	     11.46070890	    -20.03121173
      3.78000000	     39.50873476	      1.30699218	      5.49717807	    -49.83913851	    783.23072123	      2.74459272	     15.38932314	     42.89056185	     45.00000000	     44.12482691	    -22.27653128	   2080.76356745	  -2632.90352199	    144.91144383	   -170.24416913	   1087.48328392	    385.32658104	     16.58893765	     14.83669423	      6.96138456	    -45.00000000	    -45.00000000	     45.00000000	    -12.77701246	  -1716.35236687	  -2091.64448372	     27.64561850	      6.06910869	   1800.57163495	     39.71509065	     11.30968883	    -19.94413780
      3.79000000	     39.50009902	      1.00093227	      5.14158954	    -47.69219955	    783.42176083	      2.84483707	     15.22199874	     42.91225642	     45.00000000	     44.03732615	    -21.51041324	   2080.92046375	  -2633.06766481	    145.03894239	   -170.17348248	   1087.36165500	    385.72655234	     16.57271180	     14.80983877	      6.81608840	    -45.00000000	    -45.00000000	     45.00000000	    -12.31202374	  -1716.66008544	  -2091.65263591	     27.55346730	      5.63082872	   1800.55197559	     39.49100511	     11.13678175	    -19.89491839
      3.80000000	     39.46841876	      0.78642332	      4.79997218	    -45.86504881	    783.75762458	      2.93253744	     15.13516020	     43.08283916	     45.00000000	     43.99949516	    -20.90104028	   2081.07304507	  -2633.18442194	    145.13440989	   -170.26461993	   1087.20928438	    386.12044877	     16.55669445	     14.74611373	      6.70316421	    -45.00000000	    -45.00000000	     45.00000000	    -11.88479807	  -1716.93696799	  -2091.67576300	     27.49260133	      5.33513214	   1800.58220820	     39.37448353	     10.96645560	    -19.88270590
      3.81000000	     39.45094329	      0.55495136	      4.63247746	    -44.37358148	    784.20692540	      3.00571484	     15.01465805	     43.15671993	     45.00000000	     43.98809827	    -20.27366170	   2081.38159974	  -2633.22898481	    145.40389883	   -170.43770266	   1087.16968917	    386.48237263	     16.57088386	     14.68463808	      6.59262949	    -45.00000000	    -45.00000000	     45.00000000	    -11.43951544	  -1717.14395901	  -2091.68835376	     27.25319437	      5.22459631	   1800.65910327	     39.32260241	     10.78415035	    -19.89416367
      3.82000000	     39.35503707	      0.31034968	      4.27166617	    -43.22534581	    784.73748627	      3.06451104	     14.86201435	     42.90493315	     45.00000000	     43.76424757	    -19.52378193	   2081.12835774	  -2633.41653998	    145.16720764	   -170.47847596	   1086.89589610	    386.93457395	     16.56531752	     14.69141298	      6.45184377	    -45.00000000	    -45.00000000	     45.00000000	    -10.90431938	  -1717.22690172	  -2091.72273086	     27.32212926	      5.10014566	   1800.62266345	     39.34580914	     10.72421964	    -19.92417624
